<?xml version="1.0" encoding="UTF-8"?>
<svg id="Layer_2" data-name="Layer 2" xmlns="http://www.w3.org/2000/svg" viewBox="0 0 72.14 72.14">
  <g id="Layer_1-2" data-name="Layer 1">
    <path d="m36.07,0c-7.13,0-14.11,2.12-20.04,6.08-5.93,3.96-10.55,9.6-13.28,16.19C.02,28.86-.7,36.11.69,43.1c1.39,7,4.83,13.42,9.87,18.47,5.04,5.04,11.47,8.48,18.47,9.87,7,1.39,14.25.68,20.84-2.05,6.59-2.73,12.22-7.35,16.19-13.28,3.96-5.93,6.08-12.9,6.08-20.04h-18.03c0,3.57-1.06,7.05-3.04,10.02-1.98,2.97-4.8,5.28-8.09,6.64-3.3,1.36-6.92,1.72-10.42,1.03-3.5-.7-6.71-2.41-9.23-4.94-2.52-2.52-4.24-5.74-4.94-9.23-.7-3.5-.34-7.12,1.03-10.42,1.36-3.3,3.68-6.11,6.64-8.09,2.97-1.98,6.45-3.04,10.02-3.04V0Z" fill="#fff"/>
    <path d="m36.07,0c-4.74,0-9.43.93-13.8,2.75-4.38,1.81-8.35,4.47-11.7,7.82-3.35,3.35-6.01,7.33-7.82,11.7C.93,26.64,0,31.33,0,36.07h18.03c0-2.37.47-4.71,1.37-6.9.91-2.19,2.23-4.18,3.91-5.85,1.67-1.67,3.66-3,5.85-3.91,2.19-.91,4.53-1.37,6.9-1.37V0Z" fill="#5ce1e6"/>
    <circle cx="36.07" cy="36.07" r="11.27" fill="#5ce1e6"/>
    <path d="m47.34,36.07c0-1.48-.29-2.95-.86-4.31-.57-1.37-1.4-2.61-2.44-3.66-1.05-1.05-2.29-1.88-3.66-2.44s-2.83-.86-4.31-.86-2.95.29-4.31.86c-1.37.57-2.61,1.4-3.66,2.44-1.05,1.05-1.88,2.29-2.44,3.66-.57,1.37-.86,2.83-.86,4.31h22.54Z" fill="#fff"/>
  </g>
</svg>